<svg xmlns="http://www.w3.org/2000/svg" viewBox="0 0 500 372.61"><defs><style>.cls-1{fill:#ebebeb;}.cls-2{fill:#e0e0e0;}.cls-3,.cls-5{fill:#f0f0f0;}.cls-4{fill:#e6e6e6;}.cls-5{stroke:#e0e0e0;stroke-width:2px;}.cls-28,.cls-29,.cls-31,.cls-5{stroke-linecap:round;stroke-linejoin:round;}.cls-6{fill:#f5f5f5;}.cls-28,.cls-29,.cls-31,.cls-7{fill:none;}.cls-7{stroke:#407bff;stroke-miterlimit:10;}.cls-8{fill:#407bff;}.cls-10,.cls-13,.cls-14,.cls-18,.cls-20,.cls-24,.cls-30,.cls-9{fill:#fff;}.cls-12,.cls-16,.cls-9{opacity:0.2;}.cls-10,.cls-12,.cls-14,.cls-15,.cls-16,.cls-17,.cls-18,.cls-19,.cls-21,.cls-26,.cls-9{isolation:isolate;}.cls-10,.cls-15,.cls-21,.cls-23,.cls-30{opacity:0.5;}.cls-11{fill:#263238;}.cls-14,.cls-19{opacity:0.4;}.cls-17{opacity:0.3;}.cls-18{opacity:0.6;}.cls-20,.cls-22{opacity:0.8;}.cls-24{font-size:8.48px;font-family:Montserrat-Medium, Montserrat;font-weight:500;}.cls-25{fill:#ebb376;}.cls-26{opacity:0.1;}.cls-27{fill:#d58745;}.cls-28,.cls-29{stroke:#263238;}.cls-28{stroke-width:0.72px;}.cls-29{stroke-width:0.71px;}.cls-31{stroke:#fff;}</style></defs><title>5165304</title><g id="Background_Complete" data-name="Background Complete"><rect class="cls-1" y="327.45" width="500" height="0.25"/><rect class="cls-1" x="416.78" y="343.54" width="33.12" height="0.25"/><rect class="cls-1" x="322.53" y="346.26" width="8.69" height="0.25"/><rect class="cls-1" x="396.59" y="334.26" width="19.19" height="0.25"/><rect class="cls-1" x="52.46" y="335.94" width="43.19" height="0.25"/><rect class="cls-1" x="104.56" y="335.94" width="6.33" height="0.25"/><rect class="cls-1" x="131.47" y="340.16" width="93.68" height="0.25"/><path class="cls-1" d="M237,337.8H43.91a5.71,5.71,0,0,1-5.7-5.71V60.66A5.71,5.71,0,0,1,43.91,55H237a5.71,5.71,0,0,1,5.71,5.71V332.09A5.71,5.71,0,0,1,237,337.8ZM43.91,55.2a5.46,5.46,0,0,0-5.45,5.46V332.09a5.46,5.46,0,0,0,5.45,5.46H237a5.47,5.47,0,0,0,5.46-5.46V60.66A5.47,5.47,0,0,0,237,55.2Z" transform="translate(0 -54.95)"/><path class="cls-1" d="M453.31,337.8H260.21a5.72,5.72,0,0,1-5.71-5.71V60.66A5.72,5.72,0,0,1,260.21,55h193.1A5.71,5.71,0,0,1,459,60.66V332.09A5.71,5.71,0,0,1,453.31,337.8ZM260.21,55.2a5.47,5.47,0,0,0-5.46,5.46V332.09a5.47,5.47,0,0,0,5.46,5.46h193.1a5.47,5.47,0,0,0,5.46-5.46V60.66a5.47,5.47,0,0,0-5.46-5.46Z" transform="translate(0 -54.95)"/><polygon class="cls-2" points="199.23 253.84 190.8 253.84 185.24 253.84 200.82 266.74 203.68 266.74 206.23 266.74 202.59 261.21 213.21 266.74 215.77 266.74 218.79 266.74 199.23 253.84"/><polygon class="cls-2" points="88.75 266.74 94.33 266.74 106.72 260.29 101.31 266.74 106.72 266.74 122.3 253.84 108.31 253.84 88.75 266.74"/><polygon class="cls-3" points="103.85 266.74 116.74 253.84 108.31 253.84 88.75 266.74 91.77 266.74 106.72 258.52 101.31 266.74 103.85 266.74"/><path class="cls-2" d="M60.26,321.69v61.18H248.68V321.69Zm185.34,24H94.33v-20H245.6Z" transform="translate(0 -54.95)"/><path class="cls-1" d="M90.21,321.69v61.18H248.68V321.69Zm155.39,24H94.33v-20H245.6Z" transform="translate(0 -54.95)"/><rect class="cls-2" x="218.02" y="270.7" width="27.58" height="19.99"/><rect class="cls-2" x="94.33" y="280.7" width="39.94" height="10"/><rect class="cls-2" x="136.78" y="284.76" width="25.69" height="5.94"/><rect class="cls-2" x="168.41" y="278.55" width="30.29" height="12.15"/><polygon class="cls-2" points="124.4 295.05 123.67 297.44 113.84 297.44 113.11 295.05 94.33 295.05 94.33 321.6 143.18 321.6 143.18 295.05 124.4 295.05"/><polygon class="cls-2" points="175.54 295.05 174.81 297.44 164.99 297.44 164.26 295.05 145.47 295.05 145.47 321.6 194.33 321.6 194.33 295.05 175.54 295.05"/><polygon class="cls-2" points="226.69 295.05 225.96 297.44 216.14 297.44 215.4 295.05 196.62 295.05 196.62 321.6 245.47 321.6 245.47 295.05 226.69 295.05"/><rect class="cls-2" x="82.17" y="172.85" width="136.85" height="82.69" rx="3.53"/><rect class="cls-4" x="85.39" y="172.85" width="136.85" height="82.69" rx="3.53"/><rect class="cls-3" x="116.49" y="204.75" width="74.65" height="128.81" transform="translate(422.96 60.39) rotate(90)"/><circle class="cls-2" cx="372.32" cy="118.17" r="18.94" transform="translate(-17.61 39.95) rotate(-14.19)"/><circle class="cls-3" cx="372.32" cy="118.17" r="16.1" transform="translate(171.76 398.43) rotate(-76.72)"/><polyline class="cls-5" points="371.56 52.17 371.56 63.43 364.1 59.21"/><path class="cls-4" d="M114.37,118.24s-.92-6,3.48-9.89,4-6.16,2.75-6.46-2.41,3.56-4.34,4.62c0,0-.07-5.5,1.9-7.53s3-7.25,1.12-7.34-2.06,3.1-2.44,5.36a19.15,19.15,0,0,1-2.47,5.46s-.41-4.93-1.68-7,2.12-6.66.81-8.69-3.62,1.84-3.43,6.18,3.1,9,2.42,13.52c0,0-1.28-3.18-2.43-3.47s-2.3-2.4-3.08-3.18-1.73,1.92,0,4.43,6.19,9.23,5.51,14.66Z" transform="translate(0 -54.95)"/><path class="cls-4" d="M117,115.5l1.43,9a4.58,4.58,0,0,1-4.53,5.31h-1.53a4.59,4.59,0,0,1-4.54-5.31l1.44-9Z" transform="translate(0 -54.95)"/><rect class="cls-2" x="95.23" y="126.51" width="101.72" height="5.23" transform="translate(292.18 203.29) rotate(180)"/><rect class="cls-1" x="187.79" y="107.24" width="4.48" height="19.26" transform="translate(380.06 178.8) rotate(180)"/><rect class="cls-1" x="166.12" y="107.24" width="4.48" height="19.26" transform="translate(336.72 178.8) rotate(180)"/><rect class="cls-1" x="139.85" y="107" width="4.48" height="19.27" transform="translate(262.31 200.76) rotate(-170.22)"/><rect class="cls-1" x="182.24" y="109.78" width="4.48" height="16.73" transform="translate(368.95 181.34) rotate(180)"/><rect class="cls-1" x="171.93" y="109.78" width="4.48" height="16.73" transform="translate(348.35 181.34) rotate(180)"/><rect class="cls-1" x="145.94" y="109.78" width="4.48" height="16.73" transform="translate(296.35 181.34) rotate(180)"/><rect class="cls-1" x="158.37" y="109.5" width="4.48" height="16.73" transform="translate(291.83 212.79) rotate(-167.47)"/><rect class="cls-1" x="178.36" y="106.29" width="2.24" height="20.22" transform="translate(358.96 177.84) rotate(180)"/><rect class="cls-1" x="151.7" y="106.29" width="2.24" height="20.22" transform="translate(305.65 177.84) rotate(180)"/><rect class="cls-2" x="95.23" y="110.57" width="101.72" height="5.23"/><rect class="cls-1" x="99.91" y="91.31" width="4.48" height="19.27"/><rect class="cls-1" x="121.58" y="91.31" width="4.48" height="19.27"/><rect class="cls-1" x="147.85" y="146.02" width="4.48" height="19.27" transform="translate(-24.26 -27.2) rotate(-9.78)"/><rect class="cls-1" x="105.47" y="93.85" width="4.48" height="16.73"/><rect class="cls-1" x="115.77" y="93.85" width="4.48" height="16.73"/><rect class="cls-1" x="141.76" y="93.85" width="4.48" height="16.73"/><rect class="cls-1" x="129.33" y="148.51" width="4.48" height="16.73" transform="translate(-30.89 -22.68) rotate(-12.53)"/><rect class="cls-1" x="111.58" y="90.35" width="2.24" height="20.22"/><rect class="cls-1" x="138.24" y="90.35" width="2.24" height="20.22"/><rect class="cls-1" x="165.36" y="95.32" width="21.84" height="15.07"/></g><g id="Shadow"><ellipse id="_Path_" data-name="&lt;Path&gt;" class="cls-6" cx="250" cy="361.29" rx="193.89" ry="11.32"/></g><g id="Plant"><path class="cls-7" d="M74.25,344.14s5.83-4.87,10.84,0,6,35,6,35" transform="translate(0 -54.95)"/><path class="cls-7" d="M91.47,384.94S88,349.59,101,334.73" transform="translate(0 -54.95)"/><path class="cls-7" d="M90.23,381.21S92.88,341,83.17,332" transform="translate(0 -54.95)"/><path class="cls-7" d="M91.47,381.21s.22-26.59,7.44-30.73,10.89,9.35,10.89,9.35" transform="translate(0 -54.95)"/><path class="cls-7" d="M88.62,381.21s1.17-20.41-4.42-27.71-11.47,3.13-11.47,3.13" transform="translate(0 -54.95)"/><path class="cls-7" d="M90.56,384S87,336.2,92.93,328.11" transform="translate(0 -54.95)"/><path class="cls-8" d="M105.08,354.36s-3.59,1.33-2.52,4.46S115,367.1,115,367.1s4.76-4.37.39-11.47S105.18,352.12,105.08,354.36Z" transform="translate(0 -54.95)"/><path class="cls-9" d="M105.08,354.36s-3.59,1.33-2.52,4.46S115,367.1,115,367.1s4.76-4.37.39-11.47S105.18,352.12,105.08,354.36Z" transform="translate(0 -54.95)"/><path class="cls-8" d="M89.45,348.4s3.83-.16,4,3.14S85.2,364,85.2,364s-6.08-2.19-4.78-10.43S88.49,346.37,89.45,348.4Z" transform="translate(0 -54.95)"/><path class="cls-9" d="M89.45,348.4s3.83-.16,4,3.14S85.2,364,85.2,364s-6.08-2.19-4.78-10.43S88.49,346.37,89.45,348.4Z" transform="translate(0 -54.95)"/><path class="cls-8" d="M86.2,332.6s2.56-.28,2.35-1.83-9.93-5.56-15.66.91c0,0,3.67,6.31,9,6.39S86.2,332.6,86.2,332.6Z" transform="translate(0 -54.95)"/><path class="cls-9" d="M86.2,332.6s2.56-.28,2.35-1.83-9.93-5.56-15.66.91c0,0,3.67,6.31,9,6.39S86.2,332.6,86.2,332.6Z" transform="translate(0 -54.95)"/><path class="cls-8" d="M91,328.82s-2.31,1.12-3-.31,5.49-10,13.78-7.51c0,0,.22,7.3-4.24,10.18S91,328.82,91,328.82Z" transform="translate(0 -54.95)"/><path class="cls-9" d="M91,328.82s-2.31,1.12-3-.31,5.49-10,13.78-7.51c0,0,.22,7.3-4.24,10.18S91,328.82,91,328.82Z" transform="translate(0 -54.95)"/><path class="cls-8" d="M78.87,353.1s1.76-1.42-.14-2.12-11.24-.49-11.33,8.75c0,0,10.87,1.81,12.21-1.71S78.87,353.1,78.87,353.1Z" transform="translate(0 -54.95)"/><path class="cls-9" d="M78.87,353.1s1.76-1.42-.14-2.12-11.24-.49-11.33,8.75c0,0,10.87,1.81,12.21-1.71S78.87,353.1,78.87,353.1Z" transform="translate(0 -54.95)"/><path class="cls-8" d="M101,332.37s-1.77-1.43.14-2.12,11.23-.5,11.33,8.75c0,0-10.87,1.8-12.22-1.72S101,332.37,101,332.37Z" transform="translate(0 -54.95)"/><path class="cls-9" d="M101,332.37s-1.77-1.43.14-2.12,11.23-.5,11.33,8.75c0,0-10.87,1.8-12.22-1.72S101,332.37,101,332.37Z" transform="translate(0 -54.95)"/><path class="cls-8" d="M95.29,339.81s-.16-1.73,1.24-1.05,6.26,5.93,1.22,10.91c0,0-6.79-5-5.57-7.65S95.29,339.81,95.29,339.81Z" transform="translate(0 -54.95)"/><path class="cls-9" d="M95.29,339.81s-.16-1.73,1.24-1.05,6.26,5.93,1.22,10.91c0,0-6.79-5-5.57-7.65S95.29,339.81,95.29,339.81Z" transform="translate(0 -54.95)"/><path class="cls-8" d="M77.29,342.28s1.06-1.38-.49-1.55S68.35,342.4,70,349.3c0,0,8.42-.63,8.78-3.5S77.29,342.28,77.29,342.28Z" transform="translate(0 -54.95)"/><path class="cls-9" d="M77.29,342.28s1.06-1.38-.49-1.55S68.35,342.4,70,349.3c0,0,8.42-.63,8.78-3.5S77.29,342.28,77.29,342.28Z" transform="translate(0 -54.95)"/><polygon class="cls-8" points="105.76 351.89 76.85 351.89 73.73 320.24 108.87 320.24 105.76 351.89"/><polygon class="cls-10" points="105.76 351.89 76.85 351.89 73.73 320.24 108.87 320.24 105.76 351.89"/><rect class="cls-8" x="72.19" y="316.75" width="38.23" height="6.98"/><rect class="cls-9" x="72.19" y="316.75" width="38.23" height="6.98"/></g><g id="Interior"><polyline class="cls-11" points="340.02 351.89 340.08 351.52 341.77 331.74 348.98 331.74 343.83 351.89"/><polyline class="cls-11" points="406.74 351.89 406.68 351.52 404.98 331.74 397.78 331.74 402.93 351.89"/><polyline class="cls-11" points="330.52 351.89 330.58 351.52 333.86 331.74 341.06 331.74 334.33 351.89"/><polyline class="cls-11" points="416.24 351.89 416.17 351.52 412.9 331.74 405.7 331.74 412.43 351.89"/><g class="cls-12"><polyline class="cls-13" points="330.52 351.89 330.58 351.52 333.86 331.74 341.06 331.74 334.33 351.89"/><polyline class="cls-13" points="416.24 351.89 416.17 351.52 412.9 331.74 405.7 331.74 412.43 351.89"/></g><rect class="cls-8" x="326.01" y="213.34" width="94.75" height="122.81" rx="3.98"/><rect class="cls-14" x="326.01" y="213.34" width="94.75" height="122.81" rx="3.98"/><rect class="cls-10" x="329.87" y="240.11" width="87.02" height="44.33"/><rect class="cls-10" x="329.87" y="287.4" width="87.02" height="44.33"/><rect class="cls-10" x="329.87" y="217.75" width="87.02" height="19.41"/><path class="cls-15" d="M380.5,275.93H366.26a2.3,2.3,0,0,1-2.05-1.28l-.95-1.95H383.5l-1,1.95A2.27,2.27,0,0,1,380.5,275.93Z" transform="translate(0 -54.95)"/><path class="cls-15" d="M380.5,298.29H366.26a2.28,2.28,0,0,1-2.05-1.28l-.95-1.94H383.5l-1,1.94A2.25,2.25,0,0,1,380.5,298.29Z" transform="translate(0 -54.95)"/><path class="cls-15" d="M380.5,345.58H366.26a2.28,2.28,0,0,1-2.05-1.28l-.95-1.95H383.5l-1,1.95A2.25,2.25,0,0,1,380.5,345.58Z" transform="translate(0 -54.95)"/><polygon class="cls-8" points="398.69 199.79 406.21 213.34 396.85 213.34 398.69 199.79"/><polygon class="cls-16" points="398.69 199.79 406.21 213.34 396.85 213.34 398.69 199.79"/><polygon class="cls-8" points="401.2 213.34 383.5 213.34 389.04 190.41 406.74 190.41 401.2 213.34"/><polygon class="cls-10" points="385.94 211.52 390.6 192.23 404.3 192.23 399.64 211.52 385.94 211.52"/><polygon class="cls-8" points="349.41 202.9 345.02 213.34 356.76 213.34 349.41 202.9"/><polygon class="cls-8" points="373.38 213.34 350.9 213.34 345.62 197.05 368.11 197.05 373.38 213.34"/><polygon class="cls-9" points="373.38 213.34 350.9 213.34 345.62 197.05 368.11 197.05 373.38 213.34"/><polygon class="cls-10" points="352.14 210.99 348.38 199.4 366.87 199.4 370.62 210.99 352.14 210.99"/></g><g id="Device"><rect class="cls-11" x="119.16" y="90.84" width="164.47" height="275.83" rx="10.4"/><path class="cls-8" d="M278.08,155.7V411.18a4,4,0,0,1-4.09,4H128.36a3.6,3.6,0,0,1-3.65-3.69V155.37a3.24,3.24,0,0,1,3.13-3.38h36.41a2.57,2.57,0,0,1,2.34,1.63l1.51,3.72a2.55,2.55,0,0,0,2.34,1.62h62a2.53,2.53,0,0,0,2.34-1.6l1.51-3.73a2.57,2.57,0,0,1,2.34-1.64h35.89A3.67,3.67,0,0,1,278.08,155.7Z" transform="translate(0 -54.95)"/><path class="cls-17" d="M278.08,155.7V411.18a4,4,0,0,1-4.09,4H128.36a3.6,3.6,0,0,1-3.65-3.69V155.37a3.24,3.24,0,0,1,3.13-3.38h36.41a2.57,2.57,0,0,1,2.34,1.63l1.51,3.72a2.55,2.55,0,0,0,2.34,1.62h62a2.53,2.53,0,0,0,2.34-1.6l1.51-3.73a2.57,2.57,0,0,1,2.34-1.64h35.89A3.67,3.67,0,0,1,278.08,155.7Z" transform="translate(0 -54.95)"/><rect class="cls-18" x="124.71" y="114.24" width="153.37" height="227.21"/><rect class="cls-18" x="141.61" y="160.56" width="1.89" height="2.53" transform="translate(285.12 268.7) rotate(180)"/><rect class="cls-18" x="138.52" y="159.72" width="1.89" height="3.37" transform="translate(278.94 267.86) rotate(180)"/><rect class="cls-18" x="135.44" y="158.88" width="1.89" height="4.21" transform="translate(272.77 267.01) rotate(180)"/><rect class="cls-18" x="132.35" y="158.03" width="1.89" height="5.05" transform="translate(266.59 266.17) rotate(180)"/><rect class="cls-18" x="259.6" y="104.69" width="1.12" height="2.53"/><rect class="cls-18" x="261.5" y="158.72" width="8.95" height="4.37" transform="translate(531.94 266.85) rotate(180)"/><path class="cls-18" d="M201.37,152.35a2.11,2.11,0,1,1-2.11-2.11A2.1,2.1,0,0,1,201.37,152.35Z" transform="translate(0 -54.95)"/><path class="cls-18" d="M205.63,152.35a1.35,1.35,0,1,1-1.35-1.35A1.35,1.35,0,0,1,205.63,152.35Z" transform="translate(0 -54.95)"/><rect class="cls-8" x="124.71" y="114.24" width="153.37" height="26.23"/><path class="cls-13" d="M271.57,184.46v-2h-1.78a4.43,4.43,0,0,0-.6-1.43l1.26-1.26L269,178.32l-1.26,1.26a4.5,4.5,0,0,0-1.43-.59v-1.78h-2V179a4.6,4.6,0,0,0-1.43.59l-1.26-1.26-1.42,1.43,1.26,1.26a4.43,4.43,0,0,0-.6,1.43h-1.78v2h1.78a4.47,4.47,0,0,0,.6,1.42l-1.26,1.26,1.42,1.43,1.26-1.26a4.88,4.88,0,0,0,1.43.6v1.77h2v-1.77a4.77,4.77,0,0,0,1.43-.6l1.26,1.26,1.42-1.43-1.26-1.26a4.47,4.47,0,0,0,.6-1.42Zm-6.24.85a1.87,1.87,0,1,1,1.87-1.86A1.86,1.86,0,0,1,265.33,185.31Z" transform="translate(0 -54.95)"/><polygon class="cls-13" points="137.97 122.99 131.22 129.4 133.31 129.4 133.31 134 142.63 134 142.63 129.4 144.71 129.4 137.97 122.99"/><path class="cls-19" d="M229.89,239.47A28.5,28.5,0,1,1,201.4,211,28.44,28.44,0,0,1,229.89,239.47Z" transform="translate(0 -54.95)"/><path class="cls-20" d="M222.94,258.13a28.5,28.5,0,0,1-43.08,0,22.38,22.38,0,0,1,15.49-15.53,11,11,0,1,1,12.09,0A22.41,22.41,0,0,1,222.94,258.13Z" transform="translate(0 -54.95)"/><g class="cls-21"><path d="M147.9,284.88v.52h-3.05v-4.2h3v.52h-2.36V283h2.11v.51h-2.11v1.36Z" transform="translate(0 -54.95)"/><path d="M148.46,283.5h1.62v.5h-1.62Z" transform="translate(0 -54.95)"/><path d="M156.24,283.57v1.83h-.57v-1.76c0-.63-.3-.93-.82-.93a.92.92,0,0,0-1,1.05v1.64h-.57v-1.76c0-.63-.3-.93-.83-.93a.92.92,0,0,0-1,1.05v1.64H151v-3.18h.55v.48a1.25,1.25,0,0,1,1.09-.51,1.18,1.18,0,0,1,1.11.59,1.43,1.43,0,0,1,1.22-.59A1.22,1.22,0,0,1,156.24,283.57Z" transform="translate(0 -54.95)"/><path d="M159.83,283.48v1.92h-.55V285a1.18,1.18,0,0,1-1,.46c-.72,0-1.18-.39-1.18-.94s.33-.93,1.28-.93h.91v-.11c0-.49-.28-.77-.85-.77a1.62,1.62,0,0,0-1,.34l-.24-.43a2.07,2.07,0,0,1,1.31-.41C159.33,282.19,159.83,282.61,159.83,283.48Zm-.58.95V284h-.89c-.57,0-.73.23-.73.5s.26.51.7.51A.93.93,0,0,0,159.25,284.43Z" transform="translate(0 -54.95)"/><path d="M160.79,281.24a.38.38,0,0,1,.39-.38.38.38,0,1,1-.39.38Zm.11,1h.57v3.18h-.57Z" transform="translate(0 -54.95)"/><path d="M162.57,281h.57v4.45h-.57Z" transform="translate(0 -54.95)"/></g><g class="cls-22"><path class="cls-13" d="M251.05,306.19H151.74a7.52,7.52,0,0,1-7.52-7.52h0a7.52,7.52,0,0,1,7.52-7.52h99.31a7.52,7.52,0,0,1,7.52,7.52h0A7.52,7.52,0,0,1,251.05,306.19Z" transform="translate(0 -54.95)"/></g><g class="cls-23"><path d="M148.24,319.67c0,.91-.66,1.46-1.75,1.46h-1v1.27h-.6v-4.2h1.64C147.58,318.2,148.24,318.75,148.24,319.67Zm-.6,0c0-.6-.4-.95-1.17-.95h-1v1.89h1C147.24,320.61,147.64,320.26,147.64,319.67Z" transform="translate(0 -54.95)"/><path d="M151.53,320.48v1.92H151V322a1.17,1.17,0,0,1-1,.46c-.72,0-1.18-.39-1.18-.94s.33-.93,1.28-.93H151v-.11c0-.49-.28-.77-.85-.77a1.62,1.62,0,0,0-1,.34l-.24-.43a2.1,2.1,0,0,1,1.32-.41C151,319.19,151.53,319.61,151.53,320.48Zm-.58.95V321h-.89c-.57,0-.73.23-.73.5s.27.51.7.51A.92.92,0,0,0,151,321.43Z" transform="translate(0 -54.95)"/><path d="M152.2,322.06l.24-.45a2,2,0,0,0,1.11.33c.53,0,.76-.16.76-.43,0-.72-2-.1-2-1.37,0-.56.51-.95,1.32-.95a2.32,2.32,0,0,1,1.16.29l-.25.45a1.67,1.67,0,0,0-.91-.25c-.51,0-.75.19-.75.44,0,.75,2,.14,2,1.37,0,.58-.53.95-1.37.95A2.27,2.27,0,0,1,152.2,322.06Z" transform="translate(0 -54.95)"/><path d="M155.2,322.06l.24-.45a2.06,2.06,0,0,0,1.12.33c.53,0,.75-.16.75-.43,0-.72-2-.1-2-1.37,0-.56.51-.95,1.33-.95a2.34,2.34,0,0,1,1.16.29l-.25.45a1.73,1.73,0,0,0-.92-.25c-.5,0-.75.19-.75.44,0,.75,2,.14,2,1.37,0,.58-.53.95-1.38.95A2.29,2.29,0,0,1,155.2,322.06Z" transform="translate(0 -54.95)"/><path d="M163.36,319.22l-1.19,3.18h-.55L160.7,320l-.93,2.41h-.55L158,319.22h.54l.93,2.53,1-2.53H161l1,2.54.94-2.54Z" transform="translate(0 -54.95)"/><path d="M163.56,320.81a1.65,1.65,0,1,1,1.65,1.63A1.58,1.58,0,0,1,163.56,320.81Zm2.72,0a1.07,1.07,0,1,0-2.14,0,1.07,1.07,0,1,0,2.14,0Z" transform="translate(0 -54.95)"/><path d="M169.37,319.19v.56h-.13a1,1,0,0,0-1,1.08v1.58h-.58v-3.18h.55v.53A1.22,1.22,0,0,1,169.37,319.19Z" transform="translate(0 -54.95)"/><path d="M173.05,318v4.45h-.55v-.5a1.35,1.35,0,0,1-1.14.54,1.63,1.63,0,0,1,0-3.25,1.35,1.35,0,0,1,1.11.51V318Zm-.57,2.86a1.07,1.07,0,1,0-1.07,1.12A1,1,0,0,0,172.48,320.81Z" transform="translate(0 -54.95)"/></g><g class="cls-22"><path class="cls-13" d="M251.05,343.19H151.74a7.52,7.52,0,0,1-7.52-7.52h0a7.52,7.52,0,0,1,7.52-7.52h99.31a7.52,7.52,0,0,1,7.52,7.52h0A7.52,7.52,0,0,1,251.05,343.19Z" transform="translate(0 -54.95)"/></g><path class="cls-8" d="M226.05,374.19H176.74a7.52,7.52,0,0,1-7.52-7.52h0a7.52,7.52,0,0,1,7.52-7.52h49.31a7.52,7.52,0,0,1,7.52,7.52h0A7.52,7.52,0,0,1,226.05,374.19Z" transform="translate(0 -54.95)"/><text class="cls-24" transform="translate(186.56 314.97)">Sign in</text></g><g id="Speech_bubbles" data-name="Speech bubbles"><path class="cls-8" d="M380.1,184.92l-42.94-.4a3.7,3.7,0,0,1-3.65-3.74l.41-12.95a3.69,3.69,0,0,1,3.73-3.65l43,.41a3.7,3.7,0,0,1,3.65,3.74l-.41,12.95A3.68,3.68,0,0,1,380.1,184.92Z" transform="translate(0 -54.95)"/><path class="cls-8" d="M358,181.65s-5.44,12-17.34,15.67c0,0,6.6-3.7,6.26-16.31Z" transform="translate(0 -54.95)"/><path class="cls-13" d="M344.65,174.4l1,.56-.46.77-1-.62,0,1.14h-.88v-1.14l-1,.62-.45-.77,1-.56-1-.56.45-.77,1,.62v-1.15h.88l0,1.15,1-.62.46.77Z" transform="translate(0 -54.95)"/><path class="cls-13" d="M350.79,174.4l1,.56-.46.77-1-.62,0,1.14h-.88v-1.14l-1,.62L348,175l1-.56-1-.56.46-.77,1,.62v-1.15h.88l0,1.15,1-.62.46.77Z" transform="translate(0 -54.95)"/><path class="cls-13" d="M356.94,174.4l1,.56-.46.77-1-.62,0,1.14h-.89v-1.14l-1,.62-.45-.77,1-.56-1-.56.45-.77,1,.62v-1.15h.89l0,1.15,1-.62.46.77Z" transform="translate(0 -54.95)"/><path class="cls-13" d="M363.08,174.4l1,.56-.46.77-1-.62,0,1.14h-.88v-1.14l-1,.62-.45-.77,1-.56-1-.56.45-.77,1,.62v-1.15h.88l0,1.15,1-.62.46.77Z" transform="translate(0 -54.95)"/><path class="cls-13" d="M369.22,174.4l1,.56-.46.77-1-.62,0,1.14h-.88v-1.14l-1,.62-.46-.77,1-.56-1-.56.46-.77,1,.62v-1.15h.88l0,1.15,1-.62.46.77Z" transform="translate(0 -54.95)"/><path class="cls-13" d="M375.37,174.4l1,.56-.46.77-1-.62,0,1.14H374v-1.14l-1,.62-.45-.77,1-.56-1-.56.45-.77,1,.62v-1.15h.89l0,1.15,1-.62.46.77Z" transform="translate(0 -54.95)"/></g><g id="Character"><path class="cls-25" d="M312.14,206c5.72.89,11.27,18.51,13.68,20s.34-16.5.34-16.5l4.58-.61s5.42,27.12-2.49,26.92c-6-.15-13.2-10.22-15-15.35Z" transform="translate(0 -54.95)"/><path class="cls-26" d="M328.25,235.74c-3.65-.09-7.74-3.84-10.78-7.92a30.19,30.19,0,0,1-4.18-7.43l-.59-7.4-.56-7c5.72.89,11.27,18.51,13.68,20s.34-16.5.34-16.5l4.58-.61S336.16,235.94,328.25,235.74Z" transform="translate(0 -54.95)"/><path class="cls-16" d="M317.47,227.82a30.19,30.19,0,0,1-4.18-7.43l-.59-7.4h0S318.94,219.27,317.47,227.82Z" transform="translate(0 -54.95)"/><path class="cls-11" d="M291.08,169.56s-10.19-.12-9.7,13.89,10.29,14.2,7,18.25a23.67,23.67,0,0,0,18.48,0s-1.81-.71-.95-3.28,5.58-6.25,6-11.67S301.62,168.16,291.08,169.56Z" transform="translate(0 -54.95)"/><path class="cls-11" d="M301.15,196.38s13-2.41,10.83-14.77c-1.78-10.13-6.51-13.38-10.83-14.83a9,9,0,0,0-10.31,3.46s-8.82-2.5-7.29,12S294.66,203,301.15,196.38Z" transform="translate(0 -54.95)"/><polygon class="cls-25" points="324.85 348.54 319.07 345.58 321.17 336.94 323.11 329.02 330.39 331.41 327.46 340.48 324.85 348.54"/><path class="cls-11" d="M317.46,399.17c.34-.64,8.1,3.86,8.1,3.86s2.43,7.47,6.66,11,.12,5.05-5.23,2.39l-13.24-6.6C310,407.91,313.94,405.85,317.46,399.17Z" transform="translate(0 -54.95)"/><path class="cls-8" d="M328.19,406.83a13.43,13.43,0,0,1-2.25-2.32.16.16,0,0,1,0-.07h0a.28.28,0,0,1,0-.09h0a.13.13,0,0,1,0-.06h0a.15.15,0,0,1,.06-.09c.07-.07,1.67-1.6,3-1.51a1.37,1.37,0,0,1,1,.54.82.82,0,0,1,.19.94c-.24.41-1,.54-1.84.57a3.66,3.66,0,0,1,1.7,1.09.94.94,0,0,1,.15.75c-.11.54-.4.71-.62.76A1.85,1.85,0,0,1,328.19,406.83Zm-1.45-2.09c.93,1.09,2.18,2.27,2.71,2.14.05,0,.19,0,.26-.39a.49.49,0,0,0-.09-.4C329.21,405.47,327.73,405,326.74,404.74Zm2.66-1.41a.9.9,0,0,0-.49-.17,3.93,3.93,0,0,0-2.23,1c1.41.14,2.87.08,3.07-.27.06-.11-.07-.3-.16-.41A.86.86,0,0,0,329.4,403.33Z" transform="translate(0 -54.95)"/><polygon class="cls-16" points="327.39 340.66 321.11 337.1 323.07 329.11 330.38 331.45 327.39 340.66"/><polygon class="cls-25" points="314.65 355.76 308.04 355.76 306.15 347.26 304.43 339.47 312.16 338.29 313.48 347.54 314.65 355.76"/><path class="cls-11" d="M305.86,410.45c0-.73,9-.16,9-.16s5.51,5.6,10.86,6.86,2.36,4.47-3.62,4.47H307.27C303,421.62,305.68,418,305.86,410.45Z" transform="translate(0 -54.95)"/><path class="cls-8" d="M319.53,412.58a11.34,11.34,0,0,1-3.71-1.13l-.08-.06h0l0-.05a.31.31,0,0,1,0-.19c0-.08.79-2.17,2-2.68a1.38,1.38,0,0,1,1.16,0c.41.2.6.45.59.76,0,.47-.67.94-1.4,1.33a3.54,3.54,0,0,1,2,.22,1,1,0,0,1,.48.6.87.87,0,0,1-.22,1A1.24,1.24,0,0,1,319.53,412.58Zm-2.89-1.28c1.32.55,3,1.05,3.38.7,0,0,.15-.12.06-.47a.47.47,0,0,0-.25-.31C319.18,410.84,317.65,411.07,316.64,411.3Zm1.6-2.47a.94.94,0,0,0-.36.08,4,4,0,0,0-1.54,1.92c1.33-.5,2.61-1.2,2.63-1.6,0-.13-.19-.24-.31-.3A.92.92,0,0,0,318.24,408.83Z" transform="translate(0 -54.95)"/><polygon class="cls-16" points="313.5 347.73 306.17 347.43 304.44 339.55 312.17 338.33 313.5 347.73"/><path class="cls-11" d="M282.42,255.14l16.23-2.6,14.71-3,4,24s20.71,30,25.73,50.64-13.81,68.52-13.81,68.52l-8.65-3.83s6-46.05,5.86-51.58c-.09-3.6-11.9-20.2-20.16-31.39-.24,2.81,2.44,30.82,2.44,30.82l5.83,61.4H303.7C266.22,281.73,282.42,255.14,282.42,255.14Z" transform="translate(0 -54.95)"/><path class="cls-18" d="M303.7,398.08h10.86l-5.83-61.4s-2.66-28.2-2.44-30.82c1.63,2.21,3.4,4.62,5.19,7.11,7.27,10.11,14.9,21.38,15,24.27.14,5.54-5.86,51.59-5.86,51.59l8.65,3.83s18.83-47.9,13.81-68.53-25.73-50.63-25.73-50.63l-4-24-14.71,3-16.23,2.6S266.22,281.73,303.7,398.08Z" transform="translate(0 -54.95)"/><polygon class="cls-8" points="320.14 330.01 332.91 334.41 330.06 338.78 319.57 335.04 320.14 330.01"/><polygon class="cls-8" points="302.14 341.66 315.8 339.79 315.12 344.89 303.84 346.31 302.14 341.66"/><path class="cls-16" d="M306.29,305.86c1.63,2.21,3.4,4.62,5.19,7.11-2.86-14.82-6.23-29.25-6.23-29.25A106.13,106.13,0,0,0,306.29,305.86Z" transform="translate(0 -54.95)"/><path class="cls-8" d="M313.07,250.48l-29.61,2.05s-.4-15.86-2.76-24.11c-.32-1.11-.67-2.27-1.06-3.51-.55-1.74-1.18-3.61-1.9-5.65-.17-.48-.6-1.68-1.12-3.07a6.14,6.14,0,0,1,1.45-6.51,6,6,0,0,1,3-1.63c2.18-.48,4.33-.93,5.5-1.11a107.16,107.16,0,0,1,13.4-1.27c3.8,0,8,.22,10.4.39l2.08.16s.94.21,1.54,5.72C314.53,217.12,314.27,231.64,313.07,250.48Z" transform="translate(0 -54.95)"/><path class="cls-25" d="M299,212c-7.47-1.35-9.57-4.67-9.57-4.67,5-4.26,1.44-12.26,1.44-12.26l9,2.15a26,26,0,0,0-.55,3.79c-.35,5.49,2.13,5.67,2.13,5.67C302.82,209.69,299,212,299,212Z" transform="translate(0 -54.95)"/><path class="cls-16" d="M299.8,197.17a26,26,0,0,0-.55,3.79c-4.31-1.23-8.41-5.94-8.41-5.94Z" transform="translate(0 -54.95)"/><path class="cls-25" d="M299.14,171.52c7.85.71,10,5.14,9.85,13.29-.19,10.18-3.08,17.17-12.71,14.12C283.2,194.8,286.09,170.35,299.14,171.52Z" transform="translate(0 -54.95)"/><path class="cls-27" d="M304,183.91a16.68,16.68,0,0,0,2,3.47,2.18,2.18,0,0,1-2.15.7Z" transform="translate(0 -54.95)"/><path class="cls-11" d="M299.2,182.84c0,.64-.43,1.14-.86,1.12s-.74-.58-.7-1.23.43-1.14.86-1.12S299.24,182.19,299.2,182.84Z" transform="translate(0 -54.95)"/><path class="cls-11" d="M298.31,181.63l1.45-.46S299,182.31,298.31,181.63Z" transform="translate(0 -54.95)"/><path class="cls-11" d="M307.25,183.24c-.05.64-.43,1.14-.86,1.11s-.75-.57-.7-1.22.42-1.15.86-1.12S307.29,182.59,307.25,183.24Z" transform="translate(0 -54.95)"/><path class="cls-11" d="M306.36,182l1.45-.46S307,182.71,306.36,182Z" transform="translate(0 -54.95)"/><path class="cls-28" d="M299.61,177.4a4.13,4.13,0,0,0-3.52.89" transform="translate(0 -54.95)"/><path class="cls-28" d="M305.35,177.59a3.68,3.68,0,0,1,3.07.92" transform="translate(0 -54.95)"/><path class="cls-11" d="M289.36,184s4.25-6.13,4.14-11.16c0,0,16.14-5,15.49,10.91,0,0,2.78-13.89-10.69-15.42s-15.2,18.24-8.75,24.75C289.55,193.07,286.72,187.82,289.36,184Z" transform="translate(0 -54.95)"/><path class="cls-25" d="M290.49,185.76a3.45,3.45,0,0,0-3.42-3.48c-2.46.05-4.07,4.94,1.88,6.69C289.8,189.22,290.37,188.41,290.49,185.76Z" transform="translate(0 -54.95)"/><path class="cls-29" d="M303.25,191.38s-3.3.27-4.21-2.77" transform="translate(0 -54.95)"/><path class="cls-29" d="M293.59,172.51s12.09-1.73,15.28,8.66" transform="translate(0 -54.95)"/><path class="cls-25" d="M329.2,198.42s4.13-.07,4.27.65-.13,6.77-.68,7.62a12.39,12.39,0,0,1-2.05,2.07l.4,10.72-2.46.86-2.23-9.81s-2.53-2.47-1.79-5.6S329.2,198.42,329.2,198.42Z" transform="translate(0 -54.95)"/><path class="cls-26" d="M329.2,198.42s4.13-.07,4.27.65-.13,6.77-.68,7.62a12.39,12.39,0,0,1-2.05,2.07l.4,10.72-2.46.86-2.23-9.81s-2.53-2.47-1.79-5.6S329.2,198.42,329.2,198.42Z" transform="translate(0 -54.95)"/><path class="cls-11" d="M322.19,203.7a.63.63,0,0,0,.69.65l7-.54a.82.82,0,0,0,.74-.77l.5-14a.71.71,0,0,0-.7-.75l-7,.54a.92.92,0,0,0-.74.87Z" transform="translate(0 -54.95)"/><path class="cls-30" d="M323.46,189.56,323,203.68a.54.54,0,0,0,.61.62l5.95-.46c.4,0,1.12-.31,1.13-.71l.5-14.16c0-.4-.69-.66-1.09-.63l-6,.46A.72.72,0,0,0,323.46,189.56Z" transform="translate(0 -54.95)"/><path class="cls-25" d="M315.05,214.32l2.67-6.23s.87-8.35,1.29-9.25,7.22-.56,8-.61.6,8.28-.11,9.16-3.49,1.58-3.49,1.58l-4.27,8.28Z" transform="translate(0 -54.95)"/><path class="cls-25" d="M307.53,210.94c-.72,2.86-3.49,5.06-9.22,5a15.46,15.46,0,0,1-9-3.08,22.36,22.36,0,0,1-5.3-5.52c.83-.15,1.67-.28,2.51-.41a107.16,107.16,0,0,1,13.4-1.27c2.37,0,4.88.07,7,.18A8.21,8.21,0,0,1,307.53,210.94Z" transform="translate(0 -54.95)"/><polygon class="cls-11" points="283.38 195.34 282.14 200.75 314.1 199.08 313.18 193.72 283.38 195.34"/><path class="cls-31" d="M300.48,250.33l.37,3.47a.7.7,0,0,0,.75.62l4.62-.36a.71.71,0,0,0,.64-.77l-.32-3.42a.71.71,0,0,0-.75-.63l-4.66.32A.7.7,0,0,0,300.48,250.33Z" transform="translate(0 -54.95)"/><line class="cls-31" x1="304.26" y1="196.53" x2="305.98" y2="196.53"/><path class="cls-16" d="M287.79,227.35c-2.83,1-6-.75-8.15-2.44-.55-1.74-1.18-3.61-1.9-5.65-.17-.48-.6-1.68-1.12-3.07a6.14,6.14,0,0,1,1.45-6.51C283.51,214.81,291.57,226.06,287.79,227.35Z" transform="translate(0 -54.95)"/><path class="cls-25" d="M278,209a5.31,5.31,0,0,1,7.69,1.1c4.39,6.29,11.76,16.75,12.65,17.26,1.27.74,10.85-8.09,19.39-19.29l5.23,2s-13.51,27.78-23.1,27.9c-7.19.09-18-14.49-22.91-21.82A5.32,5.32,0,0,1,278,209Z" transform="translate(0 -54.95)"/><path class="cls-16" d="M287.79,260.15s-2.44,6.63-8.47,9v2.38s8.84-3.76,10.08-10Z" transform="translate(0 -54.95)"/><polygon class="cls-16" points="280.93 240.11 289.4 238.53 291.42 255.55 283.31 256.73 282.14 245.65 289.46 244.6 289.04 240.41 288.92 244.13 280.69 245.45 280.93 240.11"/></g></svg>